<?xml version="1.0" encoding="UTF-8"?>
<svg id="_Слой_1" data-name="Слой_1" xmlns="http://www.w3.org/2000/svg" version="1.1" viewBox="0 0 44 44">
  <!-- Generator: Adobe Illustrator 29.1.0, SVG Export Plug-In . SVG Version: 2.1.0 Build 142)  -->
  <defs>
    <style>
      .st0 {
        fill: #383838;
      }

      .st1 {
        fill: #caeeef;
      }
    </style>
  </defs>
  <circle class="st1" cx="22" cy="22" r="22"/>
  <path class="st0" d="M29.5,14.5c-2-2-4.6-3.1-7.4-3.1-5.8,0-10.5,4.7-10.5,10.5s.5,3.6,1.4,5.3l-1.5,5.4,5.6-1.5c1.5.9,3.2,1.3,5,1.3h0c5.8,0,10.5-4.7,10.5-10.5,0-2.8-1.2-5.5-3.1-7.4h0ZM22,30.7h0c-1.5,0-3.1-.4-4.5-1.2l-.3-.2-3.3.9.9-3.2-.2-.3c-.9-1.4-1.3-3-1.3-4.6,0-4.8,3.9-8.7,8.7-8.7s4.6.9,6.2,2.6c1.6,1.6,2.6,3.9,2.6,6.2,0,4.8-3.9,8.7-8.7,8.7h0ZM26.8,24.1c-.2-.2-1.5-.8-1.8-.9s-.4-.2-.6.2c-.2.2-.7.9-.9,1-.2.2-.3.2-.5,0-.2-.2-1.1-.4-2.1-1.3-.8-.7-1.3-1.5-1.5-1.9-.2-.2,0-.4,0-.5.2-.2.2-.3.4-.5s.2-.2.2-.5c0-.2,0-.3,0-.5s-.6-1.4-.8-1.9c-.2-.5-.5-.5-.6-.5h-.5c-.2,0-.5,0-.7.3-.2.2-.9.9-.9,2.2s.9,2.6,1.1,2.7c.2.2,1.9,2.9,4.5,3.9.6.2,1.1.5,1.5.5.6.2,1.2.2,1.6,0,.5,0,1.5-.6,1.8-1.2.2-.6.2-1.2.2-1.2,0,0-.2,0-.4-.2h0Z"/>
</svg>