<?xml version="1.0" encoding="UTF-8"?>
<svg id="_Слой_1" data-name="Слой_1" xmlns="http://www.w3.org/2000/svg" version="1.1" viewBox="0 0 44 44">
  <!-- Generator: Adobe Illustrator 29.1.0, SVG Export Plug-In . SVG Version: 2.1.0 Build 142)  -->
  <defs>
    <style>
      .st0 {
        fill: #383838;
      }

      .st1 {
        fill: #caeeef;
      }
    </style>
  </defs>
  <circle class="st1" cx="22" cy="22" r="22"/>
  <path class="st0" d="M32.3,25.9c-.7-.8-1.4-1.5-2.2-2.2-.7-.6-.7-1-.2-1.8.6-.8,1.2-1.6,1.8-2.4s1.1-1.5,1.4-2.4c.2-.6,0-.8-.6-1h-3.9c-.4,0-.7.2-.8.6-.2.5-.4,1-.7,1.6-.6,1.1-1.2,2.2-2.1,3.2-.2.2-.4.5-.7.4-.4-.1-.5-.8-.5-1v-4c-.1-.6-.2-.8-.8-1h-3.7c-.5,0-.7.2-1,.5s-.2.3.1.3c.6.1,1,.5,1,1.1.1,1,.1,2,0,2.9,0,.3-.1.6-.2.8-.2.4-.5.5-.8.2-.3-.2-.6-.6-.8-.9-.9-1.3-1.6-2.6-2.2-4-.2-.4-.5-.6-.9-.7h-3.2c-.6,0-.8.3-.6.9,1.2,2.6,2.5,5.1,4.1,7.4.9,1.2,1.8,2.2,3.1,2.9,1.4.8,3,1.1,4.7,1,.8,0,1-.2,1-1s.1-1,.3-1.5c.2-.5.6-.6,1.1-.2.2.1.4.3.6.5.4.5.9,1,1.3,1.4.6.6,1.2.9,2.1.8h3.3c.5,0,.8-.7.5-1.3,0-.4-.3-.8-.5-1.1Z"/>
</svg>