<?xml version="1.0" encoding="UTF-8"?>
<svg id="Layer_1" xmlns="http://www.w3.org/2000/svg" version="1.1" viewBox="0 0 95 75">
  <defs>
    <style>
      .st0 {
        fill: #169191;
      }

      .st1 {
        fill: #d4dcde;
      }
    </style>
  </defs>
  <g>
    <path class="st1" d="M62.2,72.8v-12.7c0-.8-1-.8-1.6-.6l-.4.4c-.3,1.7.4,13-.3,13.5s-6.7,1.3-7.8,1.4c-6.5.6-12.9,0-19.3-1.3-.2-4.5.4-9.2-.3-13.7l-.7-.6-1,.5v12.9c-1.4-.4-6.7-1.7-7.2-2.9s-.3-9.9-.2-11.3c.4-5.6,5-10.9,10.4-12.4,5.2-1.5,4.9,0,9.1,1.1s4.7.6,7.3,0,3.4-2.2,7.3-1.5c5.7,1,10.7,5.7,11.9,11.4.5,2.4.7,9.5.3,11.9s-5.5,3-7.4,3.7Z"/>
    <path class="st1" d="M85.2,52.4v-12.7c0-.5-1.2-1-1.8,0-1,1.9.4,12.3-.4,13.4-4,1-8.2,1.8-12.4,1.4-2.4-5.9-7.5-9.9-13.8-11,4.1-4.7,5.3-9.8,3.3-15.8s-1.3-2-.7-2.4c1.5-.9,4.2.9,5.8,1.4,4,1.2,6.8.8,10.6-.6s1-1,3.2-.9c12.2.7,15.1,12.6,14,22.9,0,.5-.2.9-.4,1.4-.8,1.4-5.6,2.7-7.3,2.8Z"/>
    <path class="st1" d="M7.5,52.4c-1.5-.2-6.7-1.6-7.2-2.9s-.3-9.5-.2-11c.7-6.8,6.8-12.7,13.7-13.2s3.5,1.1,5.7,1.7c2.9.7,5.1.7,7.9-.1s3.8-2.2,6.2-1.5c.4.3,0,.4,0,.7-.3.6-.7,1.2-.9,1.9-2,5.7-.5,11.3,3.5,15.7-6.5.8-11.6,5.1-14.1,11.1-4.2-.2-8.4-.5-12.5-1.7l-.3-13.7-.7-.3c-.4,0-1.2.5-1.2.9v12.4Z"/>
    <path class="st1" d="M21.2.3c19.1-2.4,19.3,26.7,1,25.2-15-1.2-15.1-23.4-1-25.2Z"/>
    <path class="st1" d="M45,20.5c15.5-1.7,19.4,20.8,5.1,24.8s-22.8-22.9-5.1-24.8Z"/>
    <path class="st1" d="M67.8.3c17.3-2.1,19.5,23.5,3.2,25.2-16.7,1.7-19.1-23.3-3.2-25.2Z"/>
  </g>
</svg>