<?xml version="1.0" encoding="UTF-8"?>
<svg id="Layer_1" xmlns="http://www.w3.org/2000/svg" version="1.1" viewBox="0 0 75 75">
  <defs>
    <style>
      .st0 {
        fill: #169191;
      }

      .st1 {
        fill: #d4dcde;
      }
    </style>
  </defs>
  <g>
    <path class="st1" d="M60.4.1c-1.9,4.6-4.3,8.9-6.8,13.2s-5,6.7-5.8,11.6c-1.3,8.7,0,18.7,2.9,27,2.4,6.7,10.4,7.3,15.6,11s2.5,5.3-1.3,5.8c-4,.5-14.3.3-18-.9-10.2-3.2-10-10.8-13-19.1s-11.3-12.6-17.6-18.3c-6.2-5.6-5.9-11.3.7-16.4,5.3-4.2,12.7-6.8,15.1-13.9h28.3Z"/>
    <path class="st1" d="M37.8,72.3c-3.6-3.2-8.3-9.6-10.6-13.9s-2.6-7.3-6.5-10.6-9.2-6.5-13.1-10.9c-1.8-2-6.1-7.7-3.2-10.1s3.1,1.3,4.2,2.6c6.1,7.1,15.2,11.5,19.9,19.7,3.3,5.6,4.9,11.7,9.3,16.7,5.6,6.3,8.7,5.6,16.5,5.9,2.6.1,7-.2,9.4.5s1.6,2.7-.1,2.8c-6.3-.3-12.9.4-19.1,0-2.9-.2-4.5-.8-6.7-2.7Z"/>
  </g>
</svg>