<svg id="Layer_1" xmlns="http://www.w3.org/2000/svg" version="1.1" viewBox="0 0 75 75">
  <defs>
    <style>
      .st0 {
        fill: #169191;
      }

      .st1 {
        fill: #d4dcde;
      }
    </style>
  </defs>
  <g>
    <path class="st1" d="M18.2,24.4c5.7-5.9,9.5-13.3,9.5-21.7.3-.9,1.1-1.4,2-1.2,12.9,4.2,26.2,7.6,39.1,11.9.8.3,1.8.5,2,1.5s-.1,4.2-.4,5.7c-2.3,13.8-14.5,25.4-26.4,31.6-.9.5-2,1.2-3,1L.8,39.1c-1-.7-1.1-2.3,0-3s2.7-1.2,3.8-1.8c4.9-2.6,9.7-6,13.6-10Z"/>
    <path class="st1" d="M75.6,57.8c-11,5.4-22.2,10.5-33.3,15.9-.4.2-.8.2-1.2.2L1.1,60c-2-.9-.9-3.8,1.2-3.3l39.2,13.6,32.2-15.2c1.9-.6,3.1,1.3,1.9,2.8Z"/>
    <path class="st1" d="M73.8,41.1c2.2-.4,3,2.3,1.1,3.3l-32.7,15.5c-.4.2-.8.2-1.2.2L1.1,46.1c-2-.9-.9-3.9,1.2-3.3l39.1,13.6,32.5-15.3Z"/>
    <path class="st1" d="M73.8,48c2.2-.4,3,2.3,1.1,3.3l-32.7,15.5c-.4.2-.8.2-1.2.2L1.1,53c-2-.9-.9-3.9,1.2-3.3l39.2,13.6,32.4-15.3Z"/>
    <path class="st1" d="M60.7,44.2c0-.2.1-.2.2-.3.8-.9,1.8-1.8,2.6-2.7,2.3-2.6,4.4-5.5,6.1-8.6,0,0,.3,0,.4,0,1.1.2,4,1.3,5,1.7s1.3,2.3.1,3.1l-14.4,6.8Z"/>
  </g>
</svg>