<?xml version="1.0" encoding="UTF-8"?>
<svg id="_Слой_1" data-name="Слой_1" xmlns="http://www.w3.org/2000/svg" xmlns:xlink="http://www.w3.org/1999/xlink" version="1.1" viewBox="0 0 175.1 247.7">
  <!-- Generator: Adobe Illustrator 29.1.0, SVG Export Plug-In . SVG Version: 2.1.0 Build 142)  -->
  <defs>
    <style>
      .st0 {
        fill: url(#GradientFill_19);
      }

      .st0, .st1, .st2, .st3, .st4, .st5, .st6, .st7, .st8, .st9, .st10, .st11, .st12, .st13, .st14, .st15, .st16, .st17, .st18, .st19, .st20, .st21 {
        fill-rule: evenodd;
      }

      .st1 {
        fill: url(#GradientFill_17);
      }

      .st2 {
        fill: url(#GradientFill_16);
      }

      .st3 {
        fill: url(#GradientFill_13);
      }

      .st4 {
        fill: url(#GradientFill_18);
      }

      .st5 {
        fill: url(#GradientFill_15);
      }

      .st6 {
        fill: url(#GradientFill_12);
      }

      .st7 {
        fill: url(#GradientFill_14);
      }

      .st8 {
        fill: url(#GradientFill_11);
      }

      .st9 {
        fill: url(#GradientFill_51);
      }

      .st10 {
        fill: url(#GradientFill_21);
      }

      .st11 {
        fill: url(#GradientFill_61);
      }

      .st12 {
        fill: url(#GradientFill_4);
      }

      .st12, .st13, .st20, .st21 {
        opacity: .5;
      }

      .st13 {
        fill: url(#GradientFill_3);
      }

      .st14 {
        fill: url(#GradientFill_1);
      }

      .st15 {
        fill: url(#GradientFill_5);
      }

      .st16 {
        fill: url(#GradientFill_7);
      }

      .st17 {
        fill: url(#GradientFill_6);
      }

      .st18 {
        fill: url(#GradientFill_2);
      }

      .st19 {
        fill: #004087;
      }

      .st20 {
        fill: url(#GradientFill_31);
      }

      .st21 {
        fill: url(#GradientFill_41);
      }
    </style>
    <linearGradient id="GradientFill_1" data-name="GradientFill 1" x1="54.3" y1="3" x2="60.3" y2="16" gradientUnits="userSpaceOnUse">
      <stop offset="0" stop-color="#afcb2c"/>
      <stop offset="1" stop-color="#05a064"/>
    </linearGradient>
    <linearGradient id="GradientFill_11" data-name="GradientFill 1" x1="40.2" y1="14.2" x2="44" y2="22.5" xlink:href="#GradientFill_1"/>
    <linearGradient id="GradientFill_12" data-name="GradientFill 1" x1="29.4" y1="24.7" x2="32.4" y2="31.3" xlink:href="#GradientFill_1"/>
    <linearGradient id="GradientFill_13" data-name="GradientFill 1" x1="23.2" y1="34" x2="25.8" y2="39.7" xlink:href="#GradientFill_1"/>
    <linearGradient id="GradientFill_14" data-name="GradientFill 1" x1="19.3" y1="45" x2="21.3" y2="49.3" xlink:href="#GradientFill_1"/>
    <linearGradient id="GradientFill_2" data-name="GradientFill 2" x1="35.4" y1="81" x2="72.3" y2="58.4" gradientUnits="userSpaceOnUse">
      <stop offset="0" stop-color="#006c74"/>
      <stop offset=".3" stop-color="#0d7981"/>
      <stop offset="1" stop-color="#78c7c3"/>
    </linearGradient>
    <linearGradient id="GradientFill_3" data-name="GradientFill 3" x1="42.2" y1="73" x2="70.4" y2="73" gradientUnits="userSpaceOnUse">
      <stop offset="0" stop-color="#1a9e97"/>
      <stop offset="1" stop-color="#79c6bc"/>
    </linearGradient>
    <linearGradient id="GradientFill_4" data-name="GradientFill 4" x1="61.5" y1="36.6" x2="29.8" y2="101.7" gradientUnits="userSpaceOnUse">
      <stop offset="0" stop-color="#27a6a4"/>
      <stop offset="1" stop-color="#006a6c"/>
    </linearGradient>
    <linearGradient id="GradientFill_5" data-name="GradientFill 5" x1="88.2" y1="123" x2="54.6" y2="106.7" gradientUnits="userSpaceOnUse">
      <stop offset="0" stop-color="#51c3f1"/>
      <stop offset="1" stop-color="#1e90c9"/>
    </linearGradient>
    <linearGradient id="GradientFill_6" data-name="GradientFill 6" x1="50.8" y1="100.6" x2="76.1" y2="121.7" gradientUnits="userSpaceOnUse">
      <stop offset="0" stop-color="#0e9ad7"/>
      <stop offset="1" stop-color="#007abf"/>
    </linearGradient>
    <linearGradient id="GradientFill_21" data-name="GradientFill 2" x1="124.7" y1="119.4" x2="87.8" y2="96.8" xlink:href="#GradientFill_2"/>
    <linearGradient id="GradientFill_31" data-name="GradientFill 3" x1="117.9" y1="111.4" x2="89.6" y2="111.4" xlink:href="#GradientFill_3"/>
    <linearGradient id="GradientFill_41" data-name="GradientFill 4" x1="98.5" y1="75" x2="130.3" y2="140" xlink:href="#GradientFill_4"/>
    <linearGradient id="GradientFill_51" data-name="GradientFill 5" x1="71.8" y1="161.4" x2="105.5" y2="145.1" xlink:href="#GradientFill_5"/>
    <linearGradient id="GradientFill_61" data-name="GradientFill 6" x1="109.3" y1="139" x2="83.9" y2="160.1" xlink:href="#GradientFill_6"/>
    <linearGradient id="GradientFill_15" data-name="GradientFill 1" x1="105" y1="40.7" x2="99" y2="53.8" xlink:href="#GradientFill_1"/>
    <linearGradient id="GradientFill_16" data-name="GradientFill 1" x1="119.1" y1="52" x2="115.3" y2="60.2" xlink:href="#GradientFill_1"/>
    <linearGradient id="GradientFill_17" data-name="GradientFill 1" x1="129.9" y1="62.4" x2="126.9" y2="69.1" xlink:href="#GradientFill_1"/>
    <linearGradient id="GradientFill_18" data-name="GradientFill 1" x1="136.1" y1="71.8" x2="133.5" y2="77.4" xlink:href="#GradientFill_1"/>
    <linearGradient id="GradientFill_19" data-name="GradientFill 1" x1="140" y1="82.7" x2="138" y2="87.1" xlink:href="#GradientFill_1"/>
    <linearGradient id="GradientFill_7" data-name="GradientFill 7" x1="117.2" y1="172.1" x2="51.2" y2="253.8" gradientUnits="userSpaceOnUse">
      <stop offset="0" stop-color="#004087"/>
      <stop offset="1" stop-color="#0b8084"/>
    </linearGradient>
  </defs>
  <path class="st14" d="M57.3,19c5.2,0,9.5-4.3,9.5-9.5S62.6,0,57.3,0s-9.5,4.3-9.5,9.5,4.3,9.5,9.5,9.5Z"/>
  <path class="st8" d="M42.1,24.4c3.3,0,6-2.7,6-6s-2.7-6-6-6-6,2.7-6,6,2.7,6,6,6Z"/>
  <path class="st6" d="M30.9,32.8c2.7,0,4.8-2.2,4.8-4.8s-2.2-4.8-4.8-4.8-4.8,2.2-4.8,4.8,2.2,4.8,4.8,4.8Z"/>
  <path class="st3" d="M24.5,41c2.3,0,4.1-1.8,4.1-4.1s-1.8-4.1-4.1-4.1-4.1,1.8-4.1,4.1,1.8,4.1,4.1,4.1Z"/>
  <path class="st7" d="M20.3,50.3c1.7,0,3.2-1.4,3.2-3.2s-1.4-3.2-3.2-3.2-3.2,1.4-3.2,3.2,1.4,3.2,3.2,3.2Z"/>
  <path class="st18" d="M28.6,54.4c-4.1,16.6,2.6,34.3,5.9,41,3.3,6.8,8.8,15.1,10.8,18.4s2.4,3.5,2.4,3.5c0,0-2.4-8.5,1.2-28.1,2.4-13.1,8.3-17.1,13.7-25.1,27.5-40.7-24.1-49.5-33.9-9.8Z"/>
  <path class="st13" d="M49.1,29.7c.5,0,14,2.3,11.9,18.4-2.1,16.3-10.3,15-16.3,35-6,20.1.5,30.7.5,30.7,2,3.3,2.4,3.5,2.4,3.5,0,0-2.4-8.5,1.2-28.1,2.4-13.1,8.3-17.1,13.7-25.1,17.8-26.4,2.4-39.4-13.3-34.4Z"/>
  <path class="st12" d="M63,30.4c-19,4.9-27.3,32.6-26.6,50.1.6,15.1,5.6,23.8,10.4,30.8.2,4.1.7,6.1.7,6.1,0,0-.3-.2-2.4-3.5s-7.5-11.7-10.8-18.4c-3.3-6.8-10-24.4-5.9-41,5.4-22.2,24-29.3,34.5-24Z"/>
  <path class="st15" d="M58.7,81.5s-8.6,14.9-6.4,32.5c.8,6.1,1.6,12.7,4.8,17.5,4.1,6.3,10.3,9.3,16.9,10.1,4.8.5,9.8.4,14.3-3.6,5.7-5.1,6.4-14.6,0-22.7-3.5-4.5-8.6-7.1-15.6-10.8-10.4-5.5-14.2-12-13.9-23Z"/>
  <path class="st17" d="M58.7,84.7c-1.3,3.3-2.7,8.3-1.7,12.3,1.7,6.7,15.8,13.6,19.7,19.8,3.9,6.2,3,11.6-1.3,15-4.3,3.5-13.4,3.4-18.5-.4-3.2-4.8-4-11.4-4.8-17.5-2.2-17.6,6.4-32.5,6.4-32.5,0,1.1,0,2.2,0,3.2Z"/>
  <image width="136" height="254" transform="translate(49.9 81.1) scale(.2)" xlink:href="logo-1.png"/>
  <path class="st10" d="M131.5,92.8c4.1,16.6-2.6,34.3-5.9,41-3.3,6.8-8.8,15.1-10.8,18.4s-2.4,3.5-2.4,3.5c0,0,2.4-8.5-1.2-28.1-2.4-13.1-8.3-17.1-13.7-25.1-27.5-40.7,24.1-49.5,33.9-9.8Z"/>
  <path class="st20" d="M110.9,68.1c-.5,0-14,2.3-11.9,18.4,2.1,16.3,10.3,15,16.3,35,6,20.1-.5,30.7-.5,30.7-2,3.3-2.4,3.5-2.4,3.5,0,0,2.4-8.5-1.2-28.1-2.4-13.1-8.3-17.1-13.7-25.1-17.8-26.4-2.4-39.3,13.3-34.4Z"/>
  <path class="st21" d="M97,68.7c19,4.9,27.3,32.6,26.6,50.1-.6,15.1-5.6,23.8-10.4,30.8-.2,4.1-.7,6.1-.7,6.1,0,0,.3-.2,2.4-3.5s7.5-11.7,10.8-18.4c3.3-6.8,10-24.5,5.9-41-5.4-22.2-24-29.3-34.5-24Z"/>
  <path class="st9" d="M101.4,119.9s8.6,14.9,6.4,32.5c-.8,6.1-1.6,12.7-4.8,17.5-4.1,6.3-10.3,9.3-16.9,10.1-4.8.5-9.8.4-14.3-3.6-5.7-5.1-6.4-14.6,0-22.7,3.5-4.5,8.6-7.1,15.6-10.8,10.4-5.5,14.2-12,13.9-23Z"/>
  <path class="st11" d="M101.3,123c1.3,3.3,2.7,8.3,1.7,12.3-1.7,6.7-15.8,13.6-19.7,19.8-3.9,6.2-3,11.6,1.3,15,4.3,3.5,13.4,3.4,18.5-.4,3.2-4.8,4-11.4,4.8-17.5,2.2-17.6-6.4-32.5-6.4-32.5,0,1.1,0,2.2,0,3.2Z"/>
  <image width="136" height="255" transform="translate(77.9 119.5) scale(.2)" xlink:href="logo-2.png"/>
  <path class="st5" d="M102,56.8c5.2,0,9.5-4.3,9.5-9.5s-4.3-9.5-9.5-9.5-9.5,4.3-9.5,9.5,4.3,9.5,9.5,9.5Z"/>
  <path class="st2" d="M117.2,62.1c3.3,0,6-2.7,6-6s-2.7-6-6-6-6,2.7-6,6,2.7,6,6,6Z"/>
  <path class="st1" d="M128.4,70.6c2.7,0,4.8-2.2,4.8-4.8s-2.2-4.8-4.8-4.8-4.8,2.2-4.8,4.8,2.2,4.8,4.8,4.8Z"/>
  <path class="st4" d="M134.8,78.7c2.3,0,4.1-1.8,4.1-4.1s-1.8-4.1-4.1-4.1-4.1,1.8-4.1,4.1,1.8,4.1,4.1,4.1Z"/>
  <path class="st0" d="M139,88.1c1.7,0,3.2-1.4,3.2-3.2s-1.4-3.2-3.2-3.2-3.2,1.4-3.2,3.2,1.4,3.2,3.2,3.2Z"/>
  <path class="st16" d="M9.7,194.4h4.5c5.4,0,7.5,3.6,7.5,8.6s-2.9,8.2-7.6,8.2h-2.3v2.1h2.2c6.8,0,12.8-2.5,12.8-10.3s-3.7-10.7-11-10.7H.4l-.4,2.1,4.4,1.6v27.4l-4.3,1.6.3,2.1h13.1l.4-2.1-4.3-1.6v-29h0ZM48.8,209.3v-5.1c-1.4-.6-2.9-.8-4.4-.8-2.6,0-4.5.9-6.2,1.8l-1.7-1.8-5.8.5.3,1.8h2.5v18.6l-3.2,1,.3,1.8h10.5l.4-1.8-3.3-1v-17.3c1.7-.6,3.9-1.3,5.3-1.3s1.7.1,2.4.4l1.1,3.5,1.8-.3h0ZM63,203.3c-7.4,0-11.7,4.7-11.7,12.1s3.8,12.2,11.7,12.2,11.7-4.5,11.7-12.2-4.3-12.1-11.7-12.1h0ZM63,205.2c4.2,0,6.9,3.8,6.9,10.2s-2.7,10.5-6.9,10.5-6.9-4.2-6.9-10.5,2.7-10.2,6.9-10.2h0ZM93.2,194.4h10.2l2.1,5.8,2.1-.4v-7.5h-23.6l-.3,2.1,4.3,1.6v27.4l-4.3,1.6.4,2.1h13.1l.3-2.1-4.3-1.6v-13.7h6.5l1.6,4.2,2-.3v-9.8l-2-.3-1.6,4.2h-6.5v-13.2h0ZM114.7,213c.4-4.6,2.4-7.9,6.7-7.9s5.3,1.9,5.3,5.6-.1,1.6-.3,2.3h-11.6ZM122.5,225.3c-5.4,0-8-4.3-8-10.3v-.2h15.9c.4-.8.8-2.3.8-3.7,0-4.8-4.2-7.8-10-7.8s-12,4.5-12,12.1,4.1,12.2,12.9,12.2,6.4-1,8.6-2.9l-1.1-1.6c-2,1.3-4.5,2.2-7.1,2.2h0ZM140.4,213c.4-4.6,2.4-7.9,6.7-7.9s5.3,1.9,5.3,5.6-.1,1.6-.3,2.3h-11.6ZM148.3,225.3c-5.4,0-8-4.3-8-10.3v-.2h15.9c.4-.8.8-2.3.8-3.7,0-4.8-4.2-7.8-10-7.8s-12,4.5-12,12.1,4.1,12.2,12.9,12.2,6.4-1,8.6-2.9l-1.1-1.6c-2,1.3-4.5,2.2-7.1,2.2h0ZM167.3,198.1l-2.3-.5-2.1,5.2-3.5,1.1.3,1.8h2.9v15.6c0,3.6,2,6.4,6.6,6.4s4.3-1.1,5.9-2.9l-1.1-1.3c-1,1.1-2.1,1.9-3.9,1.9s-2.7-1.3-2.7-3.7v-16h6.2l.3-1.8h-6.5v-5.8Z"/>
  <path class="st19" d="M45.5,242.7v-3.1s.7,0,.7,0v3.1s0,3.1,0,3.1h-.7v-3.1h0ZM45.3,238.3c0-.1,0-.3.1-.3,0,0,.2-.1.3-.1.3,0,.5.2.5.5s-.2.5-.5.5-.3,0-.3-.1c0,0-.1-.2-.1-.3h0ZM48.7,242.9v-3.2s.7,0,.7,0v1.2s0,0,0,0c.2-.4.4-.7.8-1,.4-.2.8-.4,1.4-.4s1.3.2,1.6.6c.4.4.5,1.1.5,2v3.7s-.7,0-.7,0v-3s0-.7,0-.7c0-.7-.1-1.2-.4-1.5-.3-.3-.7-.5-1.3-.5s-.7,0-1.1.3c-.3.2-.6.4-.7.8-.2.3-.3.7-.3,1.1v3.5s-.7,0-.7,0v-3h0ZM58.4,246c-.8,0-1.4-.3-1.9-.9-.5-.6-.7-1.4-.7-2.4s.2-1.8.7-2.4c.5-.6,1.1-.9,1.9-.9s1,.1,1.4.4c.4.3.6.6.8,1h0v-3.2s.7,0,.7,0v4.8s0,3.3,0,3.3h-.7v-1.2s0,0,0,0c-.1.4-.4.7-.8,1-.4.3-.8.4-1.4.4h0ZM56.5,242.7c0,.8.2,1.5.5,2,.4.5.9.7,1.5.7s.7,0,1-.2c.3-.2.6-.4.8-.8.2-.4.3-.9.3-1.6s0-1.1-.3-1.5c-.2-.4-.4-.7-.8-.9-.3-.2-.7-.3-1-.3-.6,0-1.1.2-1.5.7-.4.5-.5,1.1-.5,2h0ZM63.8,242.7v-3.1s.7,0,.7,0v3.1s0,3.1,0,3.1h-.7v-3.1h0ZM63.6,238.3c0-.1,0-.3.1-.3,0,0,.2-.1.3-.1.3,0,.5.2.5.5s-.2.5-.5.5-.3,0-.3-.1c0,0-.1-.2-.1-.3h0ZM69.4,245.8h-.8l-2.4-6.1h.7l2.1,5.4h0l2.1-5.4h.7l-2.4,6.1h0ZM73.6,242.7v-3.1s.7,0,.7,0v3.1s0,3.1,0,3.1h-.7v-3.1h0ZM73.5,238.3c0-.1,0-.3.1-.3,0,0,.2-.1.3-.1.3,0,.5.2.5.5s-.2.5-.5.5-.3,0-.3-.1c0,0-.1-.2-.1-.3h0ZM78.9,246c-.8,0-1.4-.3-1.9-.9-.5-.6-.7-1.4-.7-2.4s.2-1.8.7-2.4c.5-.6,1.1-.9,1.9-.9s1,.1,1.4.4c.4.3.6.6.8,1h0v-3.2s.7,0,.7,0v4.8s0,3.3,0,3.3h-.7v-1.2s0,0,0,0c-.1.4-.4.7-.8,1s-.8.4-1.4.4h0ZM77,242.7c0,.8.2,1.5.5,2,.4.5.9.7,1.5.7s.7,0,1-.2c.3-.2.6-.4.8-.8.2-.4.3-.9.3-1.6s0-1.1-.3-1.5c-.2-.4-.4-.7-.8-.9-.3-.2-.7-.3-1-.3-.6,0-1.1.2-1.5.7-.4.5-.5,1.1-.5,2h0ZM89.2,242.6v3.2s-.7,0-.7,0v-1.1s0,0,0,0c-.2.4-.5.7-.8.9-.4.2-.8.4-1.3.4-.7,0-1.3-.2-1.6-.6-.4-.4-.5-1.1-.5-2v-3.7s.7,0,.7,0v2.9s0,.7,0,.7c0,.7.1,1.2.4,1.5.3.3.7.5,1.2.5s.7,0,1-.3c.3-.2.5-.4.7-.8.2-.3.3-.7.3-1.1v-3.5s.7,0,.7,0v2.9h0ZM93.4,246c-.6,0-1.1-.2-1.5-.5-.3-.3-.5-.8-.5-1.3s.3-1.2.8-1.5c.6-.3,1.5-.5,2.7-.5h.6v-.2c0-.6-.1-1.1-.4-1.5-.3-.3-.7-.5-1.3-.5s-1,.2-1.3.5c-.3.3-.4.8-.4,1.3l-.6-.2c0-.7.2-1.2.6-1.6.4-.4,1-.6,1.7-.6s1.3.2,1.7.6c.4.4.6,1,.6,1.8v2.8c0,.2,0,.4.1.5,0,.1.2.2.4.2s.2,0,.3,0v.5c0,0-.2,0-.4,0-.3,0-.5,0-.6-.3-.2-.2-.2-.5-.2-.8s0-.3,0-.4h0c-.2.5-.5.9-.9,1.2-.4.3-.9.4-1.5.4h0ZM92.1,244.2c0,.4.1.7.4.9.2.2.6.3,1,.3s.7,0,1.1-.3c.3-.2.6-.4.8-.8.2-.4.3-.8.3-1.3v-.3h-.5c-.7,0-1.3,0-1.7.1-.4,0-.8.2-1,.5-.2.2-.3.5-.3.9h0ZM98.9,241.7v-4s.7,0,.7,0v4s0,4.1,0,4.1h-.7v-4.1h0ZM108.3,246c-.7,0-1.3-.2-1.7-.5-.4-.3-.7-.8-.7-1.4l.6-.2c0,.4.2.8.5,1,.3.3.8.4,1.3.4s.9-.1,1.2-.3c.3-.2.4-.5.4-.9s-.1-.6-.4-.8c-.3-.2-.7-.3-1.3-.4-.8-.1-1.3-.3-1.6-.6-.3-.3-.4-.7-.4-1.2s.2-1,.5-1.3c.4-.3.8-.4,1.4-.4,1.4,0,2.1.6,2.3,1.8l-.6.2c0-.4-.2-.8-.5-1-.3-.2-.7-.3-1.2-.3s-.7,0-1,.3c-.2.2-.4.4-.4.8s.1.6.3.8c.2.2.6.3,1.1.4.8.1,1.4.3,1.8.6.4.3.5.7.5,1.2s-.2,1-.6,1.3c-.4.3-1,.5-1.7.5h0ZM114.4,246c-.4,0-.8,0-1-.3-.2-.2-.4-.4-.5-.7,0-.3-.1-.7-.1-1.1v-3.7h-1s0-.5,0-.5h1v-1.9h.7v1.9s2,0,2,0v.6h-2s0,3.7,0,3.7c0,.5,0,.9.2,1.1.2.2.4.3.8.3s.7,0,1-.2v.5c-.3.2-.7.2-1.1.2h0ZM119.7,246c-.6,0-1.1-.1-1.5-.4-.4-.3-.7-.6-1-1.1-.2-.5-.3-1.1-.3-1.7,0-1,.2-1.8.7-2.4.5-.6,1.2-.9,2-.9s1.5.3,1.9.9c.4.6.6,1.4.6,2.4h-4.6c0,.8.2,1.4.6,1.9.4.5.9.7,1.5.7s.9-.1,1.2-.4c.3-.3.5-.7.6-1.3l.6.2c-.1.6-.4,1.2-.8,1.5-.4.4-1,.6-1.6.6h0ZM121.5,242.3c0-.6-.2-1.1-.5-1.6-.3-.4-.8-.6-1.4-.6s-1,.2-1.4.6c-.4.4-.6.9-.6,1.6h3.9ZM124.3,243v-3.3s.7,0,.7,0v1.2s0,0,0,0c.1-.4.4-.7.8-1,.4-.3.8-.4,1.4-.4.8,0,1.4.3,1.9.9.5.6.7,1.4.7,2.4s-.2,1.8-.7,2.4c-.5.6-1.1.9-1.9.9s-1-.1-1.4-.4c-.4-.3-.6-.6-.8-1h0v3.1s-.7,0-.7,0v-4.7h0ZM124.9,242.8c0,.6,0,1.1.3,1.5.2.4.4.7.8.9.3.2.7.3,1,.3.6,0,1.1-.2,1.5-.7.4-.5.5-1.1.5-2s-.2-1.5-.5-2-.9-.7-1.5-.7-.7,0-1,.3c-.3.2-.6.5-.8.9-.2.4-.3.9-.3,1.5Z"/>
</svg>