<?xml version="1.0" encoding="UTF-8"?>
<svg id="Layer_1" xmlns="http://www.w3.org/2000/svg" version="1.1" viewBox="0 0 328.4 380.2">
  <!-- Generator: Adobe Illustrator 29.1.0, SVG Export Plug-In . SVG Version: 2.1.0 Build 142)  -->
  <defs>
    <style>
      .st0 {
        fill: #77cdd5;
      }

      .st1 {
        fill: #a8dff5;
      }

      .st2 {
        fill: #f2fafb;
      }

      .st3 {
        display: none;
        fill: #5c60ab;
      }
    </style>
  </defs>
  <path class="st0" d="M160.7,246.6c31.7,34,22.3,103.1-20.8,123.6-57.2,27.2-145.7-2.2-139.7-75.7,2.5-31.1,30.9-68.7,65-61-45,18.4-65.9,71.2-31.5,110.5,35.5,40.5,124.7,24.8,129.5-34.5,4.1-50.5-18.5-68.4-64.8-78.2s-33.2-2.5-43.7-10.3c-19.2-14.2-25.5-47-21.2-69.2s4.6-19.2,13.1-12.6,5,12.5,5.6,18.4c1.7,16.4,1.2,34.8,15,47,22.9,20.1,65.8,12.4,93.5,42Z"/>
  <path class="st2" d="M85.8,248c-25.6,4-44.3,32.5-42.1,57.3,2.1,23.9,16.4,37.7,37.4,46.4,2.4,1,2,1.4-.3,1.3-15.2-.7-33.3-14.5-40.5-27.5-23.9-43.2,16.4-92.5,63.7-79.7,1.3.3,4.4.5,4.4,2.1-6.9.8-15.9-1-22.5,0Z"/>
  <path class="st3" d="M357.3,381.6c-124.2,24.5-160.5,9.4-170.5-9.1-11.4-21.1,11.6-46.4,22.8-92.4,16.5-67.8-4.7-131-25.6-174.3l.6-69.1-2.9-63.3c63.1,21,126.2,42,189.3,63.1"/>
  <path class="st2" d="M191.3,321c10.1-27.5,14-69.1-3.2-94.3-22.3-32.8-90.9-27-69.3-81.7,8.9-22.5,30.7-33,44.3-51.7,10.7-14.6,17.4-31.7,21.2-49.3,0,0,.2,0,.3,0v-7.3c0,0-1.6-36.6-1.6-36.6-.2,0-.4-.1-.7,0-8.4,33-14.8,63.6-43.1,85.4-27.9,21.5-58.3,21.5-68.9,61.1-4.9,18.5-6,40.5,10.5,53.4,11.2,8.8,30,9.9,43.7,14.3,54.4,17.6,63.7,50.2,65.8,103.2,0,1.2-.8,3.7,1,3.5Z"/>
  <g>
    <path class="st1" d="M292.9,126.5c-13.9-12.9-30.9-17.9-45.5-29-35.3-27-49.2-54.4-63.6-95.4-.3-.7-.2-1.7-.7-2l1.7,36.6v7.3c0,0,0,0,0,0,.4.1,1,.7,1.2,1,1.5,3.1,2.5,11.2,3.8,15.2,2.6,8.4,5.9,18.5,9.5,26.5,6.3,14,17.3,25.3,23.9,39.1,27.6,57.2-3.3,96.4-.7,152.7,1,22.1,6.6,47.1,14.2,67.8,2.9,7.8,6.6,15.1,9.8,22.7,2.3.4,1.6-.1,2.2-1.3,6.1-11.1,1.5-29.3.8-41.2-1.4-22.6-2.2-45.3,2.2-67.7,1.4-7.1,4.7-13.6,5.7-20.8h2.9c9.6,17.8,15.4,38.8,18.8,58.8,3,17.7,2.6,36.1,5.5,53.5.3,1.5,4.5,20.5,6.7,18.8,15.8-35.3,14.9-73.3,7.5-110.5-6.5-32.8-22.2-65.4-14.5-99.4,16.7,18.4,26.2,43.2,32.5,67,2,7.6,4.2,16.2,4.5,24,2.5.4,1.6-.1,2.1-1.4,1.9-4.7,4.6-19.8,4.9-25.1,1.8-30.9-12.4-75.7-35.4-97Z"/>
    <path class="st1" d="M183,0c0,0-.2,0-.3,0,.1,0,.2,0,.3,0Z"/>
    <path class="st1" d="M184.3,44s0,0,.1,0c0,0-.1,0-.1,0Z"/>
  </g>
  <circle class="st0" cx="105.8" cy="72.9" r="21.5"/>
  <circle class="st0" cx="276.1" cy="72.9" r="21.5"/>
</svg>